# xmcd
#
# Track frame offsets:
#	150
#	11728
#	23119
#	36927
#	48302
#	59572
#	72000
#	83623
#	97167
#	112884
#	123360
#	135883
#	151906
#	167548
#	181232
#	195978
#
# Disc length: 2767 seconds
#
# Revision: 0
# Processed by: cddbd v1.5.2PL0 Copyright (c) Steve Scherf et al.
# Submitted via: audiograbber 1.82.02
#
DISCID=c20acd10
DTITLE=Slim Dusty - Old Time Drover's Lament
DYEAR=1974
DGENRE=Country
TTITLE0=When You're Short Of A Smoke
TTITLE1=Keep The Lovelight Shining (with Joy McKean)
TTITLE2=Loves Game Of Let's Pretend
TTITLE3=I Love You The Best Of All (with Joy McKean)
TTITLE4=When You're Short Of A Quid
TTITLE5=Where The Golden Sliprails Are Down
TTITLE6=Middleton's Rouseabout
TTITLE7=The Old Time Drover's Lament
TTITLE8=Trumby
TTITLE9=Grasshopper Loose In Queensland
TTITLE10=If We Only Had Old Ireland Over Here
TTITLE11=Sniff The Digger's Dog
TTITLE12=Namatjira
TTITLE13=Darwin (Big Heart Of The North)
TTITLE14=The Frog
TTITLE15=The Min Min Light
EXTD=
EXTT0=
EXTT1=
EXTT2=
EXTT3=
EXTT4=
EXTT5=
EXTT6=
EXTT7=
EXTT8=
EXTT9=
EXTT10=
EXTT11=
EXTT12=
EXTT13=
EXTT14=
EXTT15=
PLAYORDER=
